<?xml version="1.0" encoding="utf-8"?>
<!-- Generator: Adobe Illustrator 22.1.0, SVG Export Plug-In . SVG Version: 6.00 Build 0)  -->
<svg version="1.1" id="mock" xmlns="http://www.w3.org/2000/svg" xmlns:xlink="http://www.w3.org/1999/xlink" x="0px" y="0px"
	 viewBox="0 0 1334 750" style="enable-background:new 0 0 1334 750;" xml:space="preserve">
<style type="text/css">
	.st0{font-family:'ArialMT';}
	.st1{font-size:54px;}
</style>
<g id="spot_1 hoverable">
	<g id="spot_1_1_">
		<path d="M623,298.6c0.8,0,1.4,0,2.1,0c0,0.6,0.1,1.2,0.1,1.8c0,4.5,2.5,6.9,7,6.9c22.6,0,45.2,0,67.9,0c4.3,0,6.8-2.5,6.8-6.8
			c0-12.2,0-24.5,0-36.7c0-4-2.6-6.6-6.6-6.6c-22.7,0-45.4,0.1-68.1-0.1c-3.6,0-7.3,2.9-7,7c0.1,0.8,0,1.6,0,2.6
			c-0.7,0.1-1.3,0.1-1.9,0.2c-1.1-5.7,1.2-10.2,5.8-11.6c0.7-0.2,1.4-0.3,2.1-0.3c23.2,0,46.4,0,69.6,0c4.4,0,8.2,3.6,8.2,8.1
			c0,12.9,0,25.8,0,38.7c0,4-3.7,7.7-7.7,7.7c-23.5,0-47,0-70.5,0c-4.1,0-7.7-3.8-7.8-7.9C623,300.7,623,299.7,623,298.6z"/>
		<g>
			<path d="M623,299.8c0.7,0,1.4,0,2.1,0c-0.4-0.4-0.8-0.8-1.1-1.1c0.2,4.8,1.3,8.9,6.6,9.7c3.7,0.6,7.8,0.1,11.6,0.1
				c5.3,0,10.6,0,16,0c10,0,20,0,29.9,0c5.1,0,14.2,2,18.1-2.5c1.3-1.6,1.7-3.5,1.8-5.5c0.3-4.8,0-9.7,0-14.5c0-4.5,0-9,0-13.5
				c0-3.6,0.7-8.1-0.5-11.6c-2-5.7-8.3-4.8-13.1-4.8c-9.7,0-19.4,0-29.2,0c-10.9,0-22.2-1-33.1-0.1c-6.5,0.5-8,5-8.1,10.7
				c0.4-0.4,0.8-0.8,1.1-1.1c-2.4,0.2-0.6-4.8,0.1-6.1c1.3-2.2,3.5-3,5.9-3.4c4.4-0.7,9.5,0,13.9,0c9.3,0,18.6,0,27.8,0
				c8.6,0,17.3-0.5,25.9,0c7.5,0.5,9,4.1,9.1,10.9c0,4.5,0,9,0,13.5c0,4.5,0,9,0,13.5c0,5.2,1.1,11.8-5,13.8
				c-4,1.3-9.2,0.5-13.4,0.5c-4.6,0-9.1,0-13.7,0c-9.1,0-18.3,0-27.4,0c-4.6,0-9.1,0-13.7,0c-2.4,0-5,0.3-7.2-1
				c-3.3-2-3.4-5.4-3.4-8.8c0-1.4-2.2-1.5-2.3,0c0,5.3,1.4,10.6,7.4,11.9c4.1,0.9,9,0.2,13.2,0.2c5.2,0,10.4,0,15.7,0
				c10.1,0,20.2,0,30.3,0c6.1,0,15.1,2,19.5-3.4c2.1-2.6,2.1-5.2,2.1-8.3c0-5.2,0-10.3,0-15.5c0-4.8,0-9.7,0-14.5
				c0-3.3,0.5-7.1-1.1-10.1c-3.4-6.4-11.2-5-17.2-5c-10.3,0-20.5,0-30.8,0c-5.6,0-11.3,0-16.9,0c-4.6,0-9.8-0.7-14.3,0.1
				c-6.5,1.2-8.5,7.4-7.6,13.2c0.1,0.4,0.6,0.9,1.1,0.8c0.6-0.1,1.3-0.1,1.9-0.2c0.6-0.1,1.1-0.5,1.1-1.1c0-2.5-0.1-4.8,1.8-6.7
				c2.2-2.2,5-1.8,7.9-1.7c3.9,0,7.8,0,11.7,0.1c8.4,0,16.9,0,25.3,0c8.4,0,16.9-0.5,25.3,0c4.2,0.2,6.8,0.7,7.4,5.5
				c0.2,1.9,0,3.9,0,5.8c0,4.2,0,8.4,0,12.6c0,4.2,0,8.4,0,12.6c0,4.5,1.1,10.2-4.6,11.4c-4,0.8-8.9,0.1-13,0.1c-4.3,0-8.6,0-13,0
				c-8.6,0-17.3,0-25.9,0c-4.3,0-8.6,0-13,0c-1.9,0-4.3,0.3-6.1-0.2c-3.6-1.1-3.6-4.2-3.8-7.3c0-0.6-0.5-1.1-1.1-1.1
				c-0.7,0-1.4,0-2.1,0C621.6,297.5,621.6,299.8,623,299.8z"/>
		</g>
	</g>
	<text id="number" transform="matrix(1 0 0 1 649.333 301.3335)" class="st0 st1">1</text>
</g>
<g id="spot_2 hoverable">
	<g id="spot_2_1_">
		<path d="M623,357.9c0.8,0,1.4,0,2.1,0c0,0.6,0.1,1.2,0.1,1.8c0,4.5,2.5,6.9,7,6.9c22.6,0,45.2,0,67.9,0c4.3,0,6.8-2.5,6.8-6.8
			c0-12.2,0-24.5,0-36.7c0-4-2.6-6.6-6.6-6.6c-22.7,0-45.4,0.1-68.1-0.1c-3.6,0-7.3,2.9-7,7c0.1,0.8,0,1.6,0,2.6
			c-0.7,0.1-1.3,0.1-1.9,0.2c-1.1-5.7,1.2-10.2,5.8-11.6c0.7-0.2,1.4-0.3,2.1-0.3c23.2,0,46.4,0,69.6,0c4.4,0,8.2,3.6,8.2,8.1
			c0,12.9,0,25.8,0,38.7c0,4-3.7,7.7-7.7,7.7c-23.5,0-47,0-70.5,0c-4.1,0-7.7-3.8-7.8-7.9C623,360,623,359,623,357.9z"/>
		<g>
			<path d="M623,359c0.7,0,1.4,0,2.1,0c-0.4-0.4-0.8-0.8-1.1-1.1c0.2,4.8,1.3,8.9,6.6,9.7c3.7,0.6,7.8,0.1,11.6,0.1
				c5.3,0,10.6,0,16,0c10,0,20,0,29.9,0c5.1,0,14.2,2,18.1-2.5c1.3-1.6,1.7-3.5,1.8-5.5c0.3-4.8,0-9.7,0-14.5c0-4.5,0-9,0-13.5
				c0-3.6,0.7-8.1-0.5-11.6c-2-5.7-8.3-4.8-13.1-4.8c-9.7,0-19.4,0-29.2,0c-10.9,0-22.2-1-33.1-0.1c-6.5,0.5-8,5-8.1,10.7
				c0.4-0.4,0.8-0.8,1.1-1.1c-2.4,0.2-0.6-4.8,0.1-6.1c1.3-2.2,3.5-3,5.9-3.4c4.4-0.7,9.5,0,13.9,0c9.3,0,18.6,0,27.8,0
				c8.6,0,17.3-0.5,25.9,0c7.5,0.5,9,4.1,9.1,10.9c0,4.5,0,9,0,13.5c0,4.5,0,9,0,13.5c0,5.2,1.1,11.8-5,13.8
				c-4,1.3-9.2,0.5-13.4,0.5c-4.6,0-9.1,0-13.7,0c-9.1,0-18.3,0-27.4,0c-4.6,0-9.1,0-13.7,0c-2.4,0-5,0.3-7.2-1
				c-3.3-2-3.4-5.4-3.4-8.8c0-1.4-2.2-1.5-2.3,0c0,5.3,1.4,10.6,7.4,11.9c4.1,0.9,9,0.2,13.2,0.2c5.2,0,10.4,0,15.7,0
				c10.1,0,20.2,0,30.3,0c6.1,0,15.1,2,19.5-3.4c2.1-2.6,2.1-5.2,2.1-8.3c0-5.2,0-10.3,0-15.5c0-4.8,0-9.7,0-14.5
				c0-3.3,0.5-7.1-1.1-10.1c-3.4-6.4-11.2-5-17.2-5c-10.3,0-20.5,0-30.8,0c-5.6,0-11.3,0-16.9,0c-4.6,0-9.8-0.7-14.3,0.1
				c-6.5,1.2-8.5,7.4-7.6,13.2c0.1,0.4,0.6,0.9,1.1,0.8c0.6-0.1,1.3-0.1,1.9-0.2c0.6-0.1,1.1-0.5,1.1-1.1c0-2.5-0.1-4.8,1.8-6.7
				c2.2-2.2,5-1.8,7.9-1.7c3.9,0,7.8,0,11.7,0.1c8.4,0,16.9,0,25.3,0c8.4,0,16.9-0.5,25.3,0c4.2,0.2,6.8,0.7,7.4,5.5
				c0.2,1.9,0,3.9,0,5.8c0,4.2,0,8.4,0,12.6c0,4.2,0,8.4,0,12.6c0,4.5,1.1,10.2-4.6,11.4c-4,0.8-8.9,0.1-13,0.1c-4.3,0-8.6,0-13,0
				c-8.6,0-17.3,0-25.9,0c-4.3,0-8.6,0-13,0c-1.9,0-4.3,0.3-6.1-0.2c-3.6-1.1-3.6-4.2-3.8-7.3c0-0.6-0.5-1.1-1.1-1.1
				c-0.7,0-1.4,0-2.1,0C621.6,356.8,621.6,359,623,359z"/>
		</g>
	</g>
	<text id="number" transform="matrix(1 0 0 1 651 362)" class="st0 st1">2</text>
</g>
<g id="spot_3 hoverable">
	<g id="spot_3_1_">
		<path d="M623,417.2c0.8,0,1.4,0,2.1,0c0,0.6,0.1,1.2,0.1,1.8c0,4.5,2.5,6.9,7,6.9c22.6,0,45.2,0,67.9,0c4.3,0,6.8-2.5,6.8-6.8
			c0-12.2,0-24.5,0-36.7c0-4-2.6-6.6-6.6-6.6c-22.7,0-45.4,0.1-68.1-0.1c-3.6,0-7.3,2.9-7,7c0.1,0.8,0,1.6,0,2.6
			c-0.7,0.1-1.3,0.1-1.9,0.2c-1.1-5.7,1.2-10.2,5.8-11.6c0.7-0.2,1.4-0.3,2.1-0.3c23.2,0,46.4,0,69.6,0c4.4,0,8.2,3.6,8.2,8.1
			c0,12.9,0,25.8,0,38.7c0,4-3.7,7.7-7.7,7.7c-23.5,0-47,0-70.5,0c-4.1,0-7.7-3.8-7.8-7.9C623,419.3,623,418.3,623,417.2z"/>
		<g>
			<path d="M623,418.3c0.7,0,1.4,0,2.1,0c-0.4-0.4-0.8-0.8-1.1-1.1c0.2,4.8,1.3,8.9,6.6,9.7c3.7,0.6,7.8,0.1,11.6,0.1
				c5.3,0,10.6,0,16,0c10,0,20,0,29.9,0c5.1,0,14.2,2,18.1-2.5c1.3-1.6,1.7-3.5,1.8-5.5c0.3-4.8,0-9.7,0-14.5c0-4.5,0-9,0-13.5
				c0-3.6,0.7-8.1-0.5-11.6c-2-5.7-8.3-4.8-13.1-4.8c-9.7,0-19.4,0-29.2,0c-10.9,0-22.2-1-33.1-0.1c-6.5,0.5-8,5-8.1,10.7
				c0.4-0.4,0.8-0.8,1.1-1.1c-2.4,0.2-0.6-4.8,0.1-6.1c1.3-2.2,3.5-3,5.9-3.4c4.4-0.7,9.5,0,13.9,0c9.3,0,18.6,0,27.8,0
				c8.6,0,17.3-0.5,25.9,0c7.5,0.5,9,4.1,9.1,10.9c0,4.5,0,9,0,13.5c0,4.5,0,9,0,13.5c0,5.2,1.1,11.8-5,13.8
				c-4,1.3-9.2,0.5-13.4,0.5c-4.6,0-9.1,0-13.7,0c-9.1,0-18.3,0-27.4,0c-4.6,0-9.1,0-13.7,0c-2.4,0-5,0.3-7.2-1
				c-3.3-2-3.4-5.4-3.4-8.8c0-1.4-2.2-1.5-2.3,0c0,5.3,1.4,10.6,7.4,11.9c4.1,0.9,9,0.2,13.2,0.2c5.2,0,10.4,0,15.7,0
				c10.1,0,20.2,0,30.3,0c6.1,0,15.1,2,19.5-3.4c2.1-2.6,2.1-5.2,2.1-8.3c0-5.2,0-10.3,0-15.5c0-4.8,0-9.7,0-14.5
				c0-3.3,0.5-7.1-1.1-10.1c-3.4-6.4-11.2-5-17.2-5c-10.3,0-20.5,0-30.8,0c-5.6,0-11.3,0-16.9,0c-4.6,0-9.8-0.7-14.3,0.1
				c-6.5,1.2-8.5,7.4-7.6,13.2c0.1,0.4,0.6,0.9,1.1,0.8c0.6-0.1,1.3-0.1,1.9-0.2c0.6-0.1,1.1-0.5,1.1-1.1c0-2.5-0.1-4.8,1.8-6.7
				c2.2-2.2,5-1.8,7.9-1.7c3.9,0,7.8,0,11.7,0.1c8.4,0,16.9,0,25.3,0c8.4,0,16.9-0.5,25.3,0c4.2,0.2,6.8,0.7,7.4,5.5
				c0.2,1.9,0,3.9,0,5.8c0,4.2,0,8.4,0,12.6c0,4.2,0,8.4,0,12.6c0,4.5,1.1,10.2-4.6,11.4c-4,0.8-8.9,0.1-13,0.1c-4.3,0-8.6,0-13,0
				c-8.6,0-17.3,0-25.9,0c-4.3,0-8.6,0-13,0c-1.9,0-4.3,0.3-6.1-0.2c-3.6-1.1-3.6-4.2-3.8-7.3c0-0.6-0.5-1.1-1.1-1.1
				c-0.7,0-1.4,0-2.1,0C621.6,416.1,621.6,418.3,623,418.3z"/>
		</g>
	</g>
	<text id="number" transform="matrix(1 0 0 1 651 422)" class="st0 st1">3</text>
</g>
<g id="spot_4 hoverable">
	<g id="spot_4_1_">
		<path d="M623,476.5c0.8,0,1.4,0,2.1,0c0,0.6,0.1,1.2,0.1,1.8c0,4.5,2.5,6.9,7,6.9c22.6,0,45.2,0,67.9,0c4.3,0,6.8-2.5,6.8-6.8
			c0-12.2,0-24.5,0-36.7c0-4-2.6-6.6-6.6-6.6c-22.7,0-45.4,0.1-68.1-0.1c-3.6,0-7.3,2.9-7,7c0.1,0.8,0,1.6,0,2.6
			c-0.7,0.1-1.3,0.1-1.9,0.2c-1.1-5.7,1.2-10.2,5.8-11.6c0.7-0.2,1.4-0.3,2.1-0.3c23.2,0,46.4,0,69.6,0c4.4,0,8.2,3.6,8.2,8.1
			c0,12.9,0,25.8,0,38.7c0,4-3.7,7.7-7.7,7.7c-23.5,0-47,0-70.5,0c-4.1,0-7.7-3.8-7.8-7.9C623,478.6,623,477.6,623,476.5z"/>
		<g>
			<path d="M623,477.6c0.7,0,1.4,0,2.1,0c-0.4-0.4-0.8-0.8-1.1-1.1c0.2,4.8,1.3,8.9,6.6,9.7c3.7,0.6,7.8,0.1,11.6,0.1
				c5.3,0,10.6,0,16,0c10,0,20,0,29.9,0c5.1,0,14.2,2,18.1-2.5c1.3-1.6,1.7-3.5,1.8-5.5c0.3-4.8,0-9.7,0-14.5c0-4.5,0-9,0-13.5
				c0-3.6,0.7-8.1-0.5-11.6c-2-5.7-8.3-4.8-13.1-4.8c-9.7,0-19.4,0-29.2,0c-10.9,0-22.2-1-33.1-0.1c-6.5,0.5-8,5-8.1,10.7
				c0.4-0.4,0.8-0.8,1.1-1.1c-2.4,0.2-0.6-4.8,0.1-6.1c1.3-2.2,3.5-3,5.9-3.4c4.4-0.7,9.5,0,13.9,0c9.3,0,18.6,0,27.8,0
				c8.6,0,17.3-0.5,25.9,0c7.5,0.5,9,4.1,9.1,10.9c0,4.5,0,9,0,13.5c0,4.5,0,9,0,13.5c0,5.2,1.1,11.8-5,13.8
				c-4,1.3-9.2,0.5-13.4,0.5c-4.6,0-9.1,0-13.7,0c-9.1,0-18.3,0-27.4,0c-4.6,0-9.1,0-13.7,0c-2.4,0-5,0.3-7.2-1
				c-3.3-2-3.4-5.4-3.4-8.8c0-1.4-2.2-1.5-2.3,0c0,5.3,1.4,10.6,7.4,11.9c4.1,0.9,9,0.2,13.2,0.2c5.2,0,10.4,0,15.7,0
				c10.1,0,20.2,0,30.3,0c6.1,0,15.1,2,19.5-3.4c2.1-2.6,2.1-5.2,2.1-8.3c0-5.2,0-10.3,0-15.5c0-4.8,0-9.7,0-14.5
				c0-3.3,0.5-7.1-1.1-10.1c-3.4-6.4-11.2-5-17.2-5c-10.3,0-20.5,0-30.8,0c-5.6,0-11.3,0-16.9,0c-4.6,0-9.8-0.7-14.3,0.1
				c-6.5,1.2-8.5,7.4-7.6,13.2c0.1,0.4,0.6,0.9,1.1,0.8c0.6-0.1,1.3-0.1,1.9-0.2c0.6-0.1,1.1-0.5,1.1-1.1c0-2.5-0.1-4.8,1.8-6.7
				c2.2-2.2,5-1.8,7.9-1.7c3.9,0,7.8,0,11.7,0.1c8.4,0,16.9,0,25.3,0c8.4,0,16.9-0.5,25.3,0c4.2,0.2,6.8,0.7,7.4,5.5
				c0.2,1.9,0,3.9,0,5.8c0,4.2,0,8.4,0,12.6c0,4.2,0,8.4,0,12.6c0,4.5,1.1,10.2-4.6,11.4c-4,0.8-8.9,0.1-13,0.1c-4.3,0-8.6,0-13,0
				c-8.6,0-17.3,0-25.9,0c-4.3,0-8.6,0-13,0c-1.9,0-4.3,0.3-6.1-0.2c-3.6-1.1-3.6-4.2-3.8-7.3c0-0.6-0.5-1.1-1.1-1.1
				c-0.7,0-1.4,0-2.1,0C621.6,475.4,621.6,477.6,623,477.6z"/>
		</g>
	</g>
	<text id="number" transform="matrix(1 0 0 1 649 479)" class="st0 st1">4</text>
</g>
</svg>
